<?xml version="1.0" encoding="UTF-8"?>
<svg width="362px" height="435px" viewBox="0 0 362 435" version="1.1" xmlns="http://www.w3.org/2000/svg" xmlns:xlink="http://www.w3.org/1999/xlink">
    <title>244A6F87-0CD9-4E95-881E-D31CE54E0FDE</title>
    <defs>
        <linearGradient x1="49.9996702%" y1="100.004938%" x2="49.9996702%" y2="-0.00674483458%" id="linearGradient-1">
            <stop stop-color="#F4BE61" offset="0%"></stop>
            <stop stop-color="#F8F08A" offset="100%"></stop>
        </linearGradient>
        <radialGradient cx="50%" cy="50%" fx="50%" fy="50%" r="50.3198227%" gradientTransform="translate(0.500000,0.500000),scale(0.993644,1.000000),translate(-0.500000,-0.500000)" id="radialGradient-2">
            <stop stop-color="#F4BE61" offset="0%"></stop>
            <stop stop-color="#F8F08A" offset="100%"></stop>
        </radialGradient>
        <radialGradient cx="49.9999057%" cy="49.9580511%" fx="49.9999057%" fy="49.9580511%" r="50.3199195%" gradientTransform="translate(0.499999,0.499581),scale(0.993642,1.000000),translate(-0.499999,-0.499581)" id="radialGradient-3">
            <stop stop-color="#F4BE61" offset="0%"></stop>
            <stop stop-color="#F8F08A" offset="100%"></stop>
        </radialGradient>
        <radialGradient cx="50%" cy="50%" fx="50%" fy="50%" r="50.3198227%" gradientTransform="translate(0.500000,0.500000),scale(0.993644,1.000000),translate(-0.500000,-0.500000)" id="radialGradient-4">
            <stop stop-color="#F4BE61" offset="0%"></stop>
            <stop stop-color="#F8F08A" offset="100%"></stop>
        </radialGradient>
    </defs>
    <g id="Page-1" stroke="none" stroke-width="1" fill="none" fill-rule="evenodd">
        <g id="Desktop-HD-Copy" transform="translate(-540.000000, -179.000000)" fill-rule="nonzero">
            <g id="CMNRecurso-18-Copy" transform="translate(540.000000, 179.000000)">
                <g id="Group" opacity="0.31" transform="translate(40.619086, 0.000000)">
                    <path d="M184.016616,128.286757 L143.206165,43.2417864 L143.206165,43.2417864 C142.804441,42.3932625 141.945626,41.8516398 141.001903,41.8516398 C140.058179,41.8516398 139.199364,42.3932625 138.79764,43.2417864 L138.79764,43.2417864 L95.0800909,134.425553 C94.8265591,134.954786 94.338252,135.33552 93.7606202,135.454347 C93.1829884,135.573175 92.5826852,135.416385 92.1385211,135.03068 L27.3741929,78.7805825 C26.6017026,78.111706 25.4905508,77.9946578 24.5940908,78.487728 C23.6976307,78.9807981 23.207521,79.9785707 23.3678361,80.9841553 L41.990118,196 C68.7017168,186.748039 103.540934,181.735767 140.934875,181.735767 C178.328815,181.735767 213.141221,186.75565 239.85282,196 L258.551705,80.9879612 C258.704685,79.9891746 258.217266,79.0010287 257.329071,78.5093104 C256.440876,78.0175921 255.338744,78.1257382 254.564499,78.7805825 L189.930397,135.03068 C189.487278,135.416894 188.887817,135.57484 188.310328,135.457536 C187.732839,135.340232 187.243855,134.961192 186.988827,134.433165 L184.016616,128.286757 Z" id="Path" fill="url(#linearGradient-1)"></path>
                    <ellipse id="Oval" fill="url(#radialGradient-2)" cx="141.019138" cy="16.8103301" rx="16.9178566" ry="16.8103301"></ellipse>
                    <path d="M27.4546531,53.7496699 C27.4694014,46.2179738 21.3378089,40.0998356 13.7579411,40.0830039 C6.17807337,40.0662415 0.0190782866,46.1571437 0,53.6888303 C-0.0189898462,61.2205169 6.10914192,67.3420777 13.688999,67.3631068 L13.7656024,67.3631068 C17.398149,67.3631068 20.8817484,65.9284751 23.4492689,63.3751317 C26.0167895,60.8217883 27.4576756,57.3591276 27.4546531,53.7496699 L27.4546531,53.7496699 Z" id="Path" fill="url(#radialGradient-3)"></path>
                    <ellipse id="Oval" fill="url(#radialGradient-4)" cx="268.272674" cy="53.7496699" rx="13.7273258" ry="13.6400777"></ellipse>
                </g>
                <path d="M34.8688133,173.844724 L326.420305,173.844724 C342.674045,173.844724 355.850305,187.020984 355.850305,203.274724 L355.850305,396.91184 C355.850305,413.16558 342.674045,426.34184 326.420305,426.34184 L34.8688133,426.34184 C18.6150731,426.34184 5.43881329,413.16558 5.43881329,396.91184 L5.43881329,203.274724 C5.43881329,187.020984 18.6150731,173.844724 34.8688133,173.844724 Z" id="Rectangle" fill="#ADADAD" transform="translate(180.644559, 300.093282) rotate(2.470000) translate(-180.644559, -300.093282) "></path>
                <path d="M34.8734575,173.841813 L326.424949,173.841813 C342.678689,173.841813 355.854949,187.018073 355.854949,203.271813 L355.854949,396.908929 C355.854949,413.162669 342.678689,426.338929 326.424949,426.338929 L34.8734575,426.338929 C18.6197173,426.338929 5.44345752,413.162669 5.44345752,396.908929 L5.44345752,203.271813 C5.44345752,187.018073 18.6197173,173.841813 34.8734575,173.841813 Z" id="Rectangle" fill="#ADADAD" transform="translate(180.649203, 300.090371) rotate(-2.550000) translate(-180.649203, -300.090371) "></path>
                <rect id="Rectangle" fill="#FFFFFF" x="5.61908637" y="174" width="350" height="252" rx="29.43"></rect>
            </g>
        </g>
    </g>
</svg>