<?xml version="1.0" encoding="UTF-8"?>
<svg width="1447px" height="266px" viewBox="0 0 1447 266" version="1.1" xmlns="http://www.w3.org/2000/svg" xmlns:xlink="http://www.w3.org/1999/xlink">
    <title>917E38F5-64A5-4C59-B5BD-6DF299BB8CD4</title>
    <defs>
        <linearGradient x1="49.990545%" y1="100%" x2="49.990545%" y2="-0.0166320166%" id="linearGradient-1">
            <stop stop-color="#2864C3" offset="0%"></stop>
            <stop stop-color="#609FF5" offset="100%"></stop>
        </linearGradient>
        <linearGradient x1="50%" y1="100%" x2="50%" y2="-7.40997743e-14%" id="linearGradient-2">
            <stop stop-color="#6CA2F5" offset="0%"></stop>
            <stop stop-color="#B3D9F9" offset="100%"></stop>
        </linearGradient>
        <linearGradient x1="49.9876482%" y1="0.0104286161%" x2="49.9876482%" y2="100.010429%" id="linearGradient-3">
            <stop stop-color="#6CA2F5" offset="0%"></stop>
            <stop stop-color="#B3D9F9" offset="100%"></stop>
        </linearGradient>
        <linearGradient x1="50%" y1="100%" x2="50%" y2="0%" id="linearGradient-4">
            <stop stop-color="#6DCFE6" offset="0%"></stop>
            <stop stop-color="#AAF6D7" offset="100%"></stop>
        </linearGradient>
    </defs>
    <g id="Page-1" stroke="none" stroke-width="1" fill="none" fill-rule="evenodd">
        <g id="Desktop-HD" transform="translate(5.000000, -760.000000)">
            <g id="CMNRecurso-39" transform="translate(-5.000000, 760.000000)">
                <rect id="Rectangle" fill="#0C3592" fill-rule="nonzero" x="6" y="74.5000017" width="1439" height="180"></rect>
                <line x1="6" y1="70.5000017" x2="1445" y2="70.5000017" id="Path" stroke="#286BCD" stroke-width="14"></line>
                <path d="M850.33,265.5 L616.33,265.5 L601.07,72.6400017 C599.588926,53.9187052 605.994048,35.4295729 618.738944,21.6365263 C631.483841,7.84347966 649.41021,0 668.19,0 L802.81,0 C821.854664,-0.00432016319 840.010339,8.0569075 852.779373,22.1867004 C865.548406,36.3164934 871.736247,55.1930011 869.81,74.1400017 L850.33,265.5 Z" id="Path" fill="#286BCD" fill-rule="nonzero"></path>
                <path d="M839.88,253.500002 L627.88,253.500002 L614.05,78.7700017 C612.720141,61.8154907 618.528502,45.0755464 630.0739,32.5884423 C641.619297,20.1013383 657.853414,13.0000017 674.86,13.0000017 L796.86,13.0000017 C814.112315,13.0000017 830.558169,20.3039372 842.124291,33.104999 C853.690414,45.9060607 859.295029,63.0061665 857.55,80.1700017 L839.88,253.500002 Z" id="Path" fill="url(#linearGradient-1)" fill-rule="nonzero"></path>
                <rect id="Rectangle" fill="#2B62B1" fill-rule="nonzero" transform="translate(787.904850, 99.336452) rotate(7.480886) translate(-787.904850, -99.336452) " x="747.485616" y="51.4634233" width="80.8384688" height="95.746057" rx="28.95"></rect>
                <rect id="Rectangle" fill="url(#linearGradient-2)" fill-rule="nonzero" transform="translate(789.639289, 94.322517) rotate(7.550000) translate(-789.639289, -94.322517) " x="749.159289" y="46.3775166" width="80.96" height="95.89" rx="28.95"></rect>
                <rect id="Rectangle" fill="#2B62B1" fill-rule="nonzero" transform="translate(681.721301, 100.550166) rotate(172.450000) translate(-681.721301, -100.550166) " x="641.241301" y="52.6051658" width="80.96" height="95.89" rx="28.95"></rect>
                <rect id="Rectangle" fill="url(#linearGradient-3)" fill-rule="nonzero" transform="translate(681.923250, 93.514752) rotate(172.519114) translate(-681.923250, -93.514752) " x="641.504016" y="45.6417233" width="80.8384688" height="95.746057" rx="28.95"></rect>
                <rect id="Rectangle" fill="#4AA5C0" fill-rule="nonzero" x="691.3" y="42.5800017" width="91.12" height="107.92" rx="28.95"></rect>
                <rect id="Rectangle" fill="url(#linearGradient-4)" fill-rule="nonzero" x="691.3" y="35.5000017" width="91.12" height="107.92" rx="28.95"></rect>
                <path d="M746.57,119.430002 C745.140976,119.397392 743.999628,118.229398 744,116.800002 L744,102.670002 C744,102.183991 743.606011,101.790002 743.12,101.790002 L733.66,101.790002 C733.173989,101.790002 732.78,102.183991 732.78,102.670002 L732.78,116.800002 C732.78,118.252511 731.602509,119.430002 730.15,119.430002 L717.42,119.430002 C715.967491,119.430002 714.79,118.252511 714.79,116.800002 L714.79,89.6100017 L712.08,89.6100017 C711.158534,89.6065353 710.333204,89.0391209 710,88.1800017 C709.647026,87.3335133 709.84062,86.3576427 710.49,85.7100017 L735.25,61.0800017 C736.997741,59.3408783 739.822259,59.3408783 741.57,61.0800017 L750.57,70.0800017 L766.29,85.6400017 C766.934248,86.2855047 767.13186,87.2528192 766.792404,88.0992822 C766.452949,88.9457452 765.641739,89.5084934 764.73,89.5300017 L761.89,89.5300017 L761.89,116.800002 C761.89,118.252511 760.712509,119.430002 759.26,119.430002 L746.57,119.430002 Z" id="Path" fill="#438889"></path>
                <path d="M756.52,78.4700017 L765,86.9100017 C765.145932,87.0506195 765.192552,87.2654172 765.118043,87.4538793 C765.043535,87.6423414 764.862637,87.76719 764.66,87.7700017 L760.08,87.8500017 L760.08,115.920002 C760.074522,116.391057 759.691087,116.770061 759.22,116.770061 L746.57,116.770061 C746.100558,116.770061 745.72,116.389444 745.72,115.920002 L745.72,101.790002 C745.72,101.087178 745.440804,100.41314 744.943833,99.9161688 C744.446862,99.4191974 743.772824,99.1400017 743.07,99.1400017 L733.61,99.1400017 C732.906361,99.1373314 732.230771,99.4156694 731.733219,99.9132208 C731.235668,100.410772 730.95733,101.086363 730.96,101.790002 L730.96,115.920002 C730.960016,116.147179 730.869091,116.364909 730.707516,116.524606 C730.54594,116.684302 730.327162,116.772674 730.1,116.770061 L717.42,116.770061 C717.192838,116.772674 716.97406,116.684302 716.812484,116.524606 C716.650909,116.364909 716.559984,116.147179 716.56,115.920002 L716.56,87.8500017 L712.09,87.8500017 C711.890204,87.8419433 711.71355,87.7178704 711.638175,87.532663 C711.5628,87.3474556 711.602611,87.1352863 711.74,86.9900017 L736.5,62.3300017 C737.006414,61.8231568 737.693518,61.538378 738.41,61.538378 C739.126482,61.538378 739.813586,61.8231568 740.32,62.3300017 L749.32,71.3300017 L756.52,78.4700017 Z" id="Path" fill="#FBFCFF"></path>
                <path d="M380.52,123.890002 C379.017785,123.890002 377.8,125.107787 377.8,126.610002 C377.8,128.112216 379.017785,129.330002 380.52,129.330002 L391.1,129.330002 L393.38,137.870002 C393.397488,137.977864 393.420856,138.084689 393.45,138.190002 L402.15,170.730002 L402.15,170.810002 L405.06,181.720002 C405.387932,182.90172 406.463624,183.720002 407.69,183.720002 L451.22,183.720002 C452.722215,183.720002 453.94,182.502216 453.94,181.000002 C453.94,179.497787 452.722215,178.280002 451.22,178.280002 L409.81,178.280002 L408.28,172.550002 L456.82,170.110002 C458.078725,170.047792 459.129871,169.129074 459.36,167.890002 L464.8,138.000002 C464.948975,137.206435 464.736334,136.38777 464.220001,135.76701 C463.703668,135.14625 462.937427,134.788057 462.13,134.790002 L398.19,134.790002 L395.82,125.930002 C395.498105,124.744204 394.418694,123.923359 393.19,123.930002 L380.52,123.890002 Z M413.16,145.650002 C413.881389,145.650002 414.573231,145.936572 415.08333,146.446671 C415.593429,146.95677 415.88,147.648613 415.88,148.370002 L415.88,159.250002 C415.88,160.752216 414.662215,161.970002 413.16,161.970002 C411.657785,161.970002 410.44,160.752216 410.44,159.250002 L410.44,148.370002 C410.44,146.867787 411.657785,145.650002 413.16,145.650002 L413.16,145.650002 Z M429.48,145.650002 C430.201389,145.650002 430.893231,145.936572 431.40333,146.446671 C431.913429,146.95677 432.2,147.648613 432.2,148.370002 L432.2,159.250002 C432.2,160.752216 430.982215,161.970002 429.48,161.970002 C427.977785,161.970002 426.76,160.752216 426.76,159.250002 L426.76,148.370002 C426.76,146.867787 427.977785,145.650002 429.48,145.650002 L429.48,145.650002 Z M445.8,145.650002 C447.302215,145.650002 448.52,146.867787 448.52,148.370002 L448.52,159.250002 C448.52,160.752216 447.302215,161.970002 445.8,161.970002 C444.297785,161.970002 443.08,160.752216 443.08,159.250002 L443.08,148.370002 C443.08,146.867787 444.297785,145.650002 445.8,145.650002 L445.8,145.650002 Z M413.16,189.180002 C408.653356,189.180002 405,192.833358 405,197.340002 L405,197.340002 C405,201.846645 408.653356,205.500002 413.16,205.500002 L413.16,205.500002 C417.666644,205.500002 421.32,201.846645 421.32,197.340002 L421.32,197.340002 C421.32,192.833358 417.666644,189.180002 413.16,189.180002 L413.16,189.180002 Z M445.8,189.180002 C441.293356,189.180002 437.64,192.833358 437.64,197.340002 L437.64,197.340002 C437.64,199.504168 438.499712,201.579696 440.030009,203.109993 C441.560306,204.64029 443.635833,205.500002 445.8,205.500002 L445.8,205.500002 C450.306644,205.500002 453.96,201.846645 453.96,197.340002 L453.96,197.340002 C453.96,192.833358 450.306644,189.180002 445.8,189.180002 L445.8,189.180002 Z" id="Shape" fill="#3E95F2" fill-rule="nonzero"></path>
                <path d="M1051.34,128.430002 C1050.9,128.430002 1050.47,128.430002 1050.03,128.500002 L1050.03,125.000002 C1050.03,123.067005 1051.597,121.500002 1053.53,121.500002 C1055.463,121.500002 1057.03,123.067005 1057.03,125.000002 L1057.03,128.490002 C1056.59,128.490002 1056.15,128.430002 1055.72,128.430002 L1051.34,128.430002 Z M1053.52,204.500002 C1057.57,204.48474 1061.09777,201.734062 1062.1,197.810002 L1045,197.810002 C1045.99345,201.714614 1049.49118,204.461064 1053.52,204.500002 Z M1084.02,192.050002 C1083.58891,192.908335 1082.71051,193.450002 1081.75,193.450002 L1025.3,193.450002 C1024.35499,193.439512 1023.48948,192.918991 1023.03723,192.089164 C1022.58497,191.259337 1022.61663,190.249857 1023.12,189.450002 C1026.17179,185.279247 1027.95953,180.318708 1028.27,175.160002 L1028.27,155.870002 C1028.29203,143.13955 1038.60954,132.826516 1051.34,132.810002 L1055.71,132.810002 C1068.44046,132.826516 1078.75797,143.13955 1078.78,155.870002 L1078.78,175.140002 C1079.09047,180.298708 1080.87821,185.259247 1083.93,189.430002 C1084.44138,190.221549 1084.46838,191.232278 1084,192.050002 L1084.02,192.050002 Z M1046.32,140.930002 C1045.75855,139.836059 1044.42553,139.391719 1043.32,139.930002 C1040.05399,141.572744 1037.37264,144.180778 1035.64,147.400002 C1035.34596,147.90964 1035.27147,148.516834 1035.43361,149.082433 C1035.59575,149.648032 1035.98061,150.123546 1036.5,150.400002 L1036.5,150.400002 C1036.80852,150.563413 1037.15096,150.652448 1037.5,150.660002 C1038.30107,150.67243 1039.04198,150.236372 1039.42,149.530002 C1040.72607,147.093845 1042.75614,145.123172 1045.23,143.890002 C1045.76901,143.644202 1046.18741,143.193167 1046.39213,142.637254 C1046.59684,142.081341 1046.57087,141.466668 1046.32,140.930002 Z" id="Shape" fill="#3E95F2" fill-rule="nonzero"></path>
                <path d="M1278.31,121.610002 C1255.28525,121.610002 1236.62,140.275251 1236.62,163.300002 C1236.62,186.324753 1255.28525,204.990002 1278.31,204.990002 C1301.33475,204.990002 1320,186.324753 1320,163.300002 C1320,140.275251 1301.33475,121.610002 1278.31,121.610002 Z M1291.68,143.610002 C1294.53,143.610002 1296.84,146.610002 1296.84,150.290002 C1296.84,153.970002 1294.52,156.970002 1291.68,156.970002 C1288.84,156.970002 1286.51,153.970002 1286.51,150.290002 C1286.51,146.610002 1288.82,143.640002 1291.68,143.640002 L1291.68,143.610002 Z M1264.68,143.610002 C1267.54,143.610002 1269.85,146.610002 1269.85,150.290002 C1269.85,153.970002 1267.54,156.970002 1264.68,156.970002 C1261.82,156.970002 1259.52,153.970002 1259.52,150.290002 C1259.52,146.610002 1261.79,143.640002 1264.64,143.640002 L1264.68,143.610002 Z M1304.53,169.170002 C1302.33,174.390002 1294.53,189.930002 1277.02,189.930002 C1260.26,189.930002 1253.42,175.350002 1251.39,169.740002 C1250.55036,170.319593 1249.66781,170.834414 1248.75,171.280002 L1247.43,168.480002 C1247.43,168.480002 1251.37,166.580002 1252.92,164.060002 L1255.56,165.680002 C1254.84661,166.774172 1253.96199,167.746572 1252.94,168.560002 C1254.88,173.130002 1261.8,186.280002 1277.02,186.280002 C1292.55,186.280002 1301.02,172.280002 1303.21,168.090002 C1302.41008,167.38425 1301.71327,166.569623 1301.14,165.670002 L1303.78,164.050002 C1305.33,166.570002 1309.23,168.450002 1309.27,168.470002 L1307.94,171.280002 C1306.7304,170.690704 1305.57582,169.994608 1304.49,169.200002 L1304.53,169.170002 Z" id="Shape" fill="#3E95F2" fill-rule="nonzero"></path>
                <path d="M150.18,194.000002 L150.18,200.000002 C150.190932,200.743287 150.796634,201.340082 151.54,201.340002 C151.690149,201.338555 151.838951,201.3115 151.98,201.260002 C161.860926,198.283074 172.141514,196.84622 182.46,197.000002 C195.04,197.000002 206.35,198.840002 214.46,201.790002 C214.79544,201.911884 215.165642,201.894917 215.488527,201.742861 C215.811411,201.590805 216.060296,201.316225 216.18,200.980002 C216.23079,200.835306 216.257807,200.683337 216.26,200.530002 L216.26,194.000002 C207.75,190.800002 195.75,189.000002 183.26,189.000002 C170.77,189.000002 158.71,190.750002 150.18,194.000002 Z" id="Path" fill="#3E95F2" fill-rule="nonzero"></path>
                <path d="M197.79,165.260002 L183.96,136.260002 L183.22,134.660002 L182.46,136.260002 L167.28,168.120002 L143,146.860002 L149.68,188.360002 C158.73,185.200002 170.54,183.490002 183.21,183.490002 C195.88,183.490002 207.68,185.200002 216.74,188.360002 L223.44,146.860002 L199.18,168.110002 L197.79,165.260002 Z" id="Path" fill="#3E95F2" fill-rule="nonzero"></path>
                <circle id="Oval" fill="#3E95F2" fill-rule="nonzero" cx="183.22" cy="127.230002" r="5.73"></circle>
                <path d="M144.730043,139.830002 C144.738089,137.94432 143.608942,136.239626 141.869505,135.511462 C140.130069,134.783298 138.123241,135.175207 136.78556,136.504294 C135.44788,137.833381 135.043046,139.837642 135.759985,141.581735 C136.476924,143.325828 138.174305,144.465938 140.06,144.470002 L140.06,144.470002 C141.295794,144.477992 142.483718,143.992666 143.360386,143.12163 C144.237054,142.250593 144.730043,141.065822 144.730043,139.830002 Z" id="Path" fill="#3E95F2" fill-rule="nonzero"></path>
                <circle id="Oval" fill="#3E95F2" fill-rule="nonzero" cx="226.35" cy="139.830002" r="4.65"></circle>
            </g>
        </g>
    </g>
</svg>