<?xml version="1.0" encoding="UTF-8"?>
<svg width="37px" height="56px" viewBox="0 0 37 56" version="1.1" xmlns="http://www.w3.org/2000/svg" xmlns:xlink="http://www.w3.org/1999/xlink">
    <title>A3562C0E-F296-4F5A-A872-72BAD02FAA22</title>
    <defs>
        <linearGradient x1="0%" y1="49.9789476%" x2="100%" y2="49.9789476%" id="linearGradient-1">
            <stop stop-color="#E2C937" offset="0%"></stop>
            <stop stop-color="#E6C12E" offset="6%"></stop>
            <stop stop-color="#EFAF1A" offset="22%"></stop>
            <stop stop-color="#F6A30B" offset="41%"></stop>
            <stop stop-color="#FA9B03" offset="64%"></stop>
            <stop stop-color="#FB9900" offset="100%"></stop>
        </linearGradient>
    </defs>
    <g id="Page-1" stroke="none" stroke-width="1" fill="none" fill-rule="evenodd">
        <g id="iPhone-11-Copy-10" transform="translate(-189.000000, -585.000000)" fill="url(#linearGradient-1)" fill-rule="nonzero">
            <g id="CMNRecurso-19" transform="translate(153.000000, 559.000000)">
                <path d="M73,51.1617655 L73,54.8977937 C72.9733117,78.3987249 36.0300243,78.4054625 36,54.8977937 L36,51.1617655 C36,49.6137868 37.2426712,48.3589022 38.7755838,48.3589022 C40.3084964,48.3589022 41.5511676,49.6137868 41.5511676,51.1617655 C38.6454783,72.3685261 70.3478496,72.3853702 67.4488324,51.1617655 C67.4488324,49.6137868 68.6915036,48.3589022 70.2244162,48.3589022 C71.7573288,48.3589022 73,49.6137868 73,51.1617655 L73,51.1617655 Z M49.874583,34.3479542 C50.3849397,34.3479542 50.7986656,34.7657464 50.7986656,35.2811191 C50.7986656,35.7964918 50.3849397,36.2142839 49.874583,36.2142839 L43.4460373,36.2142839 C43.3626364,36.736452 43.4126769,42.102992 43.3993328,42.7531755 L49.874583,42.7531755 C50.3643069,42.7828759 50.7464038,43.1925965 50.7464038,43.6880247 C50.7464038,44.1834529 50.3643069,44.5931735 49.874583,44.622874 L43.3993328,44.622874 L43.3993328,51.1752408 C43.4248843,51.1736338 43.4505101,51.1736338 43.4760617,51.1752408 L65.5206023,51.1752408 C65.547258,51.1733582 65.5740115,51.1733582 65.6006672,51.1752408 L65.6006672,44.622874 L58.1979984,44.622874 C57.7082744,44.5931735 57.3261776,44.1834529 57.3261776,43.6880247 C57.3261776,43.1925965 57.7082744,42.7828759 58.1979984,42.7531755 L65.6006672,42.7531755 C65.6006672,42.0794102 65.6373636,36.7667714 65.5539627,36.2142839 L58.1979984,36.2142839 C57.6876417,36.2142839 57.2739158,35.7964918 57.2739158,35.2811191 C57.2739158,34.7657464 57.6876417,34.3479542 58.1979984,34.3479542 L65.233703,34.3479542 C62.2713011,23.2038774 46.7220269,23.230828 43.766297,34.3479542 L49.874583,34.3479542 Z M43.3993328,53.0146199 C42.9977109,59.1455902 47.5422193,64.4676233 53.6065608,64.9682131 C59.6709022,65.468803 65.0109728,60.9627069 65.6006672,54.8472613 C65.6473757,54.2372913 65.6473757,53.6245899 65.6006672,53.0146199 C65.5739789,53.0179887 43.4793977,53.0584146 43.3993328,53.0146199 Z M58.1979984,76.380798 L57.290596,76.380798 L57.290596,74.4167724 C55.4441009,74.5616371 53.5892595,74.5616371 51.7427644,74.4167724 L51.7427644,76.380798 L50.8153458,76.380798 C49.5843916,76.37811 48.4030393,76.87049 47.5323083,77.7491467 C46.6615773,78.6278035 46.17314,79.8204123 46.1749118,81.0634663 C46.1749118,81.5793868 46.5881033,81.9981442 47.0989992,82 L61.8976648,82 C62.4098639,82 62.8250882,81.5806996 62.8250882,81.0634663 C62.8268541,79.822749 62.3402473,78.6321868 61.4724045,77.753919 C60.6045617,76.8756512 59.4266411,76.3816906 58.1979984,76.380798 L58.1979984,76.380798 Z" id="Shape"></path>
            </g>
        </g>
    </g>
</svg>