<?xml version="1.0" encoding="UTF-8"?>
<svg width="365px" height="388px" viewBox="0 0 365 388" version="1.1" xmlns="http://www.w3.org/2000/svg" xmlns:xlink="http://www.w3.org/1999/xlink">
    <title>8FA559B3-DC65-4BC4-A043-DCFE8D158140</title>
    <defs>
        <linearGradient x1="49.9997282%" y1="100%" x2="49.9997282%" y2="-0.0023953268%" id="linearGradient-1">
            <stop stop-color="#F4BE61" offset="0%"></stop>
            <stop stop-color="#F8F08A" offset="100%"></stop>
        </linearGradient>
        <radialGradient cx="50%" cy="50%" fx="50%" fy="50%" r="50%" id="radialGradient-2">
            <stop stop-color="#F4BE61" offset="0%"></stop>
            <stop stop-color="#F8F08A" offset="100%"></stop>
        </radialGradient>
        <radialGradient cx="50%" cy="49.875%" fx="50%" fy="49.875%" r="50%" id="radialGradient-3">
            <stop stop-color="#F4BE61" offset="0%"></stop>
            <stop stop-color="#F8F08A" offset="100%"></stop>
        </radialGradient>
        <linearGradient x1="50%" y1="100%" x2="50%" y2="0%" id="linearGradient-4">
            <stop stop-color="#39B34A" offset="0%"></stop>
            <stop stop-color="#44C16C" offset="100%"></stop>
        </linearGradient>
        <linearGradient x1="50%" y1="100%" x2="50%" y2="0%" id="linearGradient-5">
            <stop stop-color="#CFE5D4" offset="0%"></stop>
            <stop stop-color="#DDFBE5" offset="100%"></stop>
        </linearGradient>
    </defs>
    <g id="Page-1" stroke="none" stroke-width="1" fill="none" fill-rule="evenodd">
        <g id="Desktop-HD-Copy-3" transform="translate(-554.000000, -42.000000)" fill-rule="nonzero">
            <g id="Group-5-Copy" transform="translate(554.000000, 42.000000)">
                <g id="CMNRecurso-33" transform="translate(64.000000, 0.000000)">
                    <path d="M154.555945,107.893625 L120.38447,36.1757006 L120.38447,36.1757006 C120.048741,35.4582922 119.328521,35 118.53682,35 C117.745119,35 117.024899,35.4582922 116.689169,36.1757006 L116.689169,36.1757006 L80.0809798,113.068908 C79.8683869,113.515434 79.4592369,113.836712 78.9752263,113.937183 C78.4912156,114.037654 77.988102,113.905744 77.6155303,113.580686 L23.3813881,66.13484 C22.7346132,65.5703202 21.8038956,65.471188 21.0528442,65.886823 C20.3017928,66.302458 19.8910275,67.1439726 20.0251585,67.9921916 L35.6281781,165 C57.9953797,157.196823 87.166992,152.970342 118.487971,152.970342 C149.808949,152.970342 178.94608,157.196823 201.313281,165 L216.973771,68.0094426 C217.110951,67.1601918 216.701309,66.316034 215.949491,65.8986867 C215.197674,65.4813394 214.265053,65.580384 213.617541,66.1463406 L159.504085,113.569186 C159.13333,113.894635 158.631595,114.027472 158.148493,113.928085 C157.665391,113.828697 157.256736,113.508569 157.044383,113.063158 L154.555945,107.893625 Z" id="Path" fill="url(#linearGradient-1)"></path>
                    <circle id="Oval" fill="url(#radialGradient-2)" cx="118" cy="14" r="14"></circle>
                    <path d="M23,45.5 C23,39.1487254 17.8512746,34 11.5,34 C5.14872538,34 0,39.1487254 0,45.5 C0,51.8512746 5.14872538,57 11.5,57 L11.56325,57 C17.88981,56.9652034 23,51.8266557 23,45.5 Z" id="Path" fill="url(#radialGradient-3)"></path>
                    <circle id="Oval" fill="url(#radialGradient-2)" cx="224.5" cy="45.5" r="11.5"></circle>
                </g>
                <g id="CMNRecurso-8" transform="translate(0.000000, 138.000000)">
                    <path d="M333.947699,250 L31.0523015,250 C13.9025889,250 0,236.111633 0,218.979464 L0,58.6360628 C0,41.5040665 10.0805524,28.4547135 30.6616801,26.7763401 C81.0938435,23.4195933 110.886076,23 182.710012,23 C254.533947,23 283.906157,24.25878 333.918297,27.6155268 C354.919448,29.2939002 365,41.5040665 365,58.6360628 L365,218.979464 C365,236.111633 351.097411,250 333.947699,250 Z" id="Path" fill="#4469A2"></path>
                    <path d="M333.947699,243 L31.0523015,243 C13.9027618,243 0,229.294986 0,212.38877 L0,54.1627418 C0,37.2607324 10.0805524,24.3844131 30.6616801,22.7270235 C81.0938435,19.4122441 110.886076,19 182.710012,19 C254.533947,19 283.906157,20.2619718 333.918297,23.5557183 C354.919448,25.2089014 365,37.2607324 365,54.1627418 L365,212.38877 C365,229.294986 351.097238,243 333.947699,243 Z" id="Path" fill="#359D5D"></path>
                    <path d="M333.947699,235 L31.0523015,235 C13.9027618,235 0,220.623036 0,202.884732 L0,36.8908036 C0,19.1566964 10.0805524,5.64839286 30.6616801,3.91107143 C81.0938435,0.419642857 110.886076,0 182.710012,0 C254.533947,0 283.906157,1.30508929 333.918297,4.77973214 C354.919448,6.51705357 365,19.1566964 365,36.8908036 L365,202.884732 C365,220.623036 351.097238,235 333.947699,235 Z" id="Path" fill="url(#linearGradient-4)"></path>
                    <path d="M327.394783,223 L38.6052174,223 C22.255942,223 9,211.129048 9,196.490866 L9,59.4563203 C9,40.7575758 18.612029,33.661039 38.2353623,32.2291342 C86.3333333,29.3569264 114.71971,29 183.201739,29 C251.683768,29 279.683478,30.0749784 327.361159,32.942987 C347.333333,34.4588745 357,39.9177489 357,59.4563203 L357,196.490866 C357,211.129048 343.744058,223 327.394783,223 Z" id="Path" fill="url(#linearGradient-5)"></path>
                </g>
            </g>
        </g>
    </g>
</svg>