<?xml version="1.0" encoding="UTF-8"?>
<svg width="272px" height="179px" viewBox="0 0 272 179" version="1.1" xmlns="http://www.w3.org/2000/svg" xmlns:xlink="http://www.w3.org/1999/xlink">
    <title>A8CC6BAD-6EA7-4D32-9FA7-E4AB6F135EA9</title>
    <defs>
        <linearGradient x1="49.9966191%" y1="100.006438%" x2="49.9966191%" y2="-0.00173866629%" id="linearGradient-1">
            <stop stop-color="#F4BE61" offset="0%"></stop>
            <stop stop-color="#F8F08A" offset="100%"></stop>
        </linearGradient>
        <radialGradient cx="50%" cy="50%" fx="50%" fy="50%" r="50%" id="radialGradient-2">
            <stop stop-color="#F4BE61" offset="0%"></stop>
            <stop stop-color="#F8F08A" offset="100%"></stop>
        </radialGradient>
        <radialGradient cx="49.9998388%" cy="49.9998958%" fx="49.9998388%" fy="49.9998958%" r="49.9999961%" id="radialGradient-3">
            <stop stop-color="#F4BE61" offset="0%"></stop>
            <stop stop-color="#F8F08A" offset="100%"></stop>
        </radialGradient>
        <linearGradient x1="50.0015359%" y1="100.00515%" x2="50.0015359%" y2="-0.00336638861%" id="linearGradient-4">
            <stop stop-color="#FFFFFF" offset="0%"></stop>
            <stop stop-color="#EEEEEE" offset="27%"></stop>
            <stop stop-color="#E4E4E4" offset="51%"></stop>
            <stop stop-color="#FAFAFA" offset="100%"></stop>
        </linearGradient>
    </defs>
    <g id="Page-1" stroke="none" stroke-width="1" fill="none" fill-rule="evenodd">
        <g id="Desktop-HD" transform="translate(-596.000000, -251.000000)" fill-rule="nonzero">
            <g id="CMNRecurso-10-Copy" transform="translate(596.000000, 251.000000)">
                <path d="M246.179334,179 C244.90999,179.00155 243.64222,178.910947 242.386098,178.728891 C212.875599,174.424004 167.555418,169.292296 119.190308,169.292296 C86.0933783,169.292296 56.3107674,171.732094 30.6724157,176.576448 C29.0712434,176.879783 27.445089,177.033165 25.8152242,177.034587 C11.5810682,177.029166 0,165.467236 0,151.25677 L0,110.772395 C0,96.5619298 11.5783471,85 25.809782,85 C26.9930349,85.0011271 28.1748653,85.0817329 29.3472324,85.2412689 C56.3515841,88.9253633 98.5043868,93.3088663 145.996018,93.3088663 C180.654868,93.3088663 212.987165,90.9395517 242.092218,86.2605621 C243.460855,86.0412963 244.844814,85.9307056 246.231035,85.929834 C260.440701,85.929834 272,97.4944746 272,111.710362 L272,153.219452 C272,167.43805 260.410768,179 246.179334,179 Z" id="Path" fill="#606060" opacity="0.66"></path>
                <g id="Group-2" transform="translate(59.000000, 0.000000)">
                    <path d="M100.427161,70.6635927 L78.232055,23.7700938 L78.232055,23.7700938 C78.0148712,23.300365 77.5469445,23 77.0323563,23 C76.5177681,23 76.0498414,23.300365 75.8326575,23.7700938 L75.8326575,23.7700938 L52.0316126,74.0481109 C51.8939728,74.3402142 51.6282755,74.5504379 51.3138515,74.616014 C50.9994276,74.6815901 50.6726581,74.5949312 50.4311085,74.3819114 L15.1901277,43.3576169 C14.77007,42.9910268 14.1672575,42.9278403 13.6812171,43.1994536 C13.1951767,43.4710668 12.9295284,44.0195741 13.0162681,44.5724318 L23.1464537,108 C37.6814222,102.89723 56.6374776,100.1338 76.9875204,100.1338 C97.3375633,100.1338 116.274597,102.902702 130.809566,108 L140.983229,44.577904 C141.071405,44.024556 140.806287,43.474796 140.319886,43.2023695 C139.833486,42.929943 139.229778,42.9930843 138.809369,43.360353 L103.644473,74.3819114 C103.403666,74.5952958 103.077495,74.6827857 102.763173,74.6183055 C102.44885,74.5538252 102.182672,74.3448203 102.043969,74.053583 L100.427161,70.6635927 Z" id="Path" fill="url(#linearGradient-1)"></path>
                    <circle id="Oval" fill="url(#radialGradient-2)" cx="78" cy="9" r="9"></circle>
                    <path d="M15,29.5190823 C15.0105042,25.3773138 11.6617523,22.0110687 7.51999419,22 C3.37823605,21.9889857 0.01158384,25.3373282 0,29.4790939 C-0.0115242083,33.6208596 3.33639442,36.9879334 7.4781497,37 L7.51907367,37 C9.50313213,37 11.4059287,36.2118341 12.8088699,34.8088899 C14.2118111,33.4059457 15,31.503145 15,29.5190823 L15,29.5190823 Z" id="Path" fill="url(#radialGradient-3)"></path>
                    <circle id="Oval" fill="url(#radialGradient-2)" cx="145.5" cy="29.5" r="7.5"></circle>
                </g>
                <path d="M29.8637813,87.2111216 C72.1902631,93.0076492 159.852218,101.573719 242.661836,88.2273431 C256.486932,85.9997855 269,96.7310849 269,110.719713 L269,152.2222 C269,158.837999 266.121759,165.12673 261.115194,169.453317 C256.108629,173.779905 249.467812,175.716884 242.919362,174.760639 C198.80375,168.30289 106.866858,158.281591 31.0212943,172.630639 C24.3543083,173.896999 17.4697384,172.12468 12.2438578,167.796698 C7.01797731,163.468716 3.99544741,157.036149 4,150.252085 L4,109.782079 C3.99463704,103.202352 6.83750087,96.942161 11.7958446,92.615083 C16.7541884,88.2880049 23.3429207,86.3173729 29.8637813,87.2111216 Z" id="Path" fill="url(#linearGradient-4)"></path>
            </g>
        </g>
    </g>
</svg>